G75*
G70*
%OFA0B0*%
%FSLAX24Y24*%
%IPPOS*%
%LPD*%
%AMOC8*
5,1,8,0,0,1.08239X$1,22.5*
%
%ADD10R,0.0197X0.0591*%
%ADD11R,0.0591X0.0197*%
%ADD12O,0.0600X0.1200*%
%ADD13C,0.0520*%
%ADD14R,0.0118X0.0591*%
%ADD15R,0.0866X0.0984*%
%ADD16R,0.0787X0.0197*%
%ADD17R,0.0591X0.0787*%
%ADD18R,0.0787X0.0591*%
%ADD19R,0.0472X0.0394*%
%ADD20O,0.0560X0.1120*%
%ADD21O,0.1120X0.0560*%
%ADD22R,0.0630X0.0709*%
%ADD23OC8,0.0560*%
%ADD24OC8,0.0520*%
%ADD25R,0.0551X0.0394*%
%ADD26R,0.0709X0.0630*%
%ADD27R,0.0866X0.0236*%
%ADD28O,0.0990X0.1980*%
%ADD29C,0.0240*%
%ADD30C,0.0260*%
%ADD31C,0.0200*%
%ADD32C,0.0000*%
%ADD33C,0.0100*%
%ADD34C,0.0160*%
D10*
X015389Y009154D03*
X015704Y009154D03*
X016019Y009154D03*
X016334Y009154D03*
X016649Y009154D03*
X016964Y009154D03*
X017279Y009154D03*
X017594Y009154D03*
X017909Y009154D03*
X018223Y009154D03*
X018538Y009154D03*
X018538Y013721D03*
X018223Y013721D03*
X017909Y013721D03*
X017594Y013721D03*
X017279Y013721D03*
X016964Y013721D03*
X016649Y013721D03*
X016334Y013721D03*
X016019Y013721D03*
X015704Y013721D03*
X015389Y013721D03*
X013038Y018154D03*
X012723Y018154D03*
X012409Y018154D03*
X012094Y018154D03*
X011779Y018154D03*
X011464Y018154D03*
X011149Y018154D03*
X010834Y018154D03*
X010519Y018154D03*
X010204Y018154D03*
X009889Y018154D03*
X009889Y022721D03*
X010204Y022721D03*
X010519Y022721D03*
X010834Y022721D03*
X011149Y022721D03*
X011464Y022721D03*
X011779Y022721D03*
X012094Y022721D03*
X012409Y022721D03*
X012723Y022721D03*
X013038Y022721D03*
X026389Y024221D03*
X026704Y024221D03*
X027019Y024221D03*
X027334Y024221D03*
X027649Y024221D03*
X027964Y024221D03*
X028279Y024221D03*
X028594Y024221D03*
X028909Y024221D03*
X029223Y024221D03*
X029538Y024221D03*
X029538Y019654D03*
X029223Y019654D03*
X028909Y019654D03*
X028594Y019654D03*
X028279Y019654D03*
X027964Y019654D03*
X027649Y019654D03*
X027334Y019654D03*
X027019Y019654D03*
X026704Y019654D03*
X026389Y019654D03*
X026389Y014221D03*
X026704Y014221D03*
X027019Y014221D03*
X027334Y014221D03*
X027649Y014221D03*
X027964Y014221D03*
X028279Y014221D03*
X028594Y014221D03*
X028909Y014221D03*
X029223Y014221D03*
X029538Y014221D03*
X029538Y009654D03*
X029223Y009654D03*
X028909Y009654D03*
X028594Y009654D03*
X028279Y009654D03*
X027964Y009654D03*
X027649Y009654D03*
X027334Y009654D03*
X027019Y009654D03*
X026704Y009654D03*
X026389Y009654D03*
D11*
X025680Y010363D03*
X025680Y010677D03*
X025680Y010992D03*
X025680Y011307D03*
X025680Y011622D03*
X025680Y011937D03*
X025680Y012252D03*
X025680Y012567D03*
X025680Y012882D03*
X025680Y013197D03*
X025680Y013512D03*
X030247Y013512D03*
X030247Y013197D03*
X030247Y012882D03*
X030247Y012567D03*
X030247Y012252D03*
X030247Y011937D03*
X030247Y011622D03*
X030247Y011307D03*
X030247Y010992D03*
X030247Y010677D03*
X030247Y010363D03*
X019247Y010492D03*
X019247Y010177D03*
X019247Y009863D03*
X019247Y010807D03*
X019247Y011122D03*
X019247Y011437D03*
X019247Y011752D03*
X019247Y012067D03*
X019247Y012382D03*
X019247Y012697D03*
X019247Y013012D03*
X014680Y013012D03*
X014680Y012697D03*
X014680Y012382D03*
X014680Y012067D03*
X014680Y011752D03*
X014680Y011437D03*
X014680Y011122D03*
X014680Y010807D03*
X014680Y010492D03*
X014680Y010177D03*
X014680Y009863D03*
X013747Y018863D03*
X013747Y019177D03*
X013747Y019492D03*
X013747Y019807D03*
X013747Y020122D03*
X013747Y020437D03*
X013747Y020752D03*
X013747Y021067D03*
X013747Y021382D03*
X013747Y021697D03*
X013747Y022012D03*
X009180Y022012D03*
X009180Y021697D03*
X009180Y021382D03*
X009180Y021067D03*
X009180Y020752D03*
X009180Y020437D03*
X009180Y020122D03*
X009180Y019807D03*
X009180Y019492D03*
X009180Y019177D03*
X009180Y018863D03*
X025680Y020363D03*
X025680Y020677D03*
X025680Y020992D03*
X025680Y021307D03*
X025680Y021622D03*
X025680Y021937D03*
X025680Y022252D03*
X025680Y022567D03*
X025680Y022882D03*
X025680Y023197D03*
X025680Y023512D03*
X030247Y023512D03*
X030247Y023197D03*
X030247Y022882D03*
X030247Y022567D03*
X030247Y022252D03*
X030247Y021937D03*
X030247Y021622D03*
X030247Y021307D03*
X030247Y020992D03*
X030247Y020677D03*
X030247Y020363D03*
D12*
X023464Y030937D03*
X022464Y030937D03*
X021464Y030937D03*
X020464Y030937D03*
X019464Y030937D03*
X018464Y030937D03*
D13*
X022464Y005437D03*
X025464Y005437D03*
X025464Y002437D03*
X022464Y002437D03*
D14*
X015627Y027010D03*
X015371Y027010D03*
X015115Y027010D03*
X014859Y027010D03*
X014603Y027010D03*
X014347Y027010D03*
X014092Y027010D03*
X013836Y027010D03*
X013580Y027010D03*
X013324Y027010D03*
X013068Y027010D03*
X012812Y027010D03*
X012556Y027010D03*
X012300Y027010D03*
X012300Y029864D03*
X012556Y029864D03*
X012812Y029864D03*
X013068Y029864D03*
X013324Y029864D03*
X013580Y029864D03*
X013836Y029864D03*
X014092Y029864D03*
X014347Y029864D03*
X014603Y029864D03*
X014859Y029864D03*
X015115Y029864D03*
X015371Y029864D03*
X015627Y029864D03*
D15*
X004751Y030591D03*
X002664Y030591D03*
X002664Y027284D03*
X004751Y027284D03*
D16*
X004849Y028307D03*
X004849Y028622D03*
X004849Y028937D03*
X004849Y029252D03*
X004849Y029567D03*
D17*
X009373Y030937D03*
X010554Y030937D03*
D18*
X008464Y029528D03*
X008464Y028347D03*
X006964Y028528D03*
X006964Y027347D03*
X010464Y027847D03*
X010464Y029028D03*
D19*
X007897Y030937D03*
X007031Y030937D03*
D20*
X018464Y028937D03*
X019464Y028937D03*
X021464Y028937D03*
X022464Y028937D03*
X023464Y028937D03*
X030964Y003437D03*
X031964Y003437D03*
X032964Y003437D03*
D21*
X021464Y006437D03*
X021464Y007437D03*
X019464Y007437D03*
X019464Y006437D03*
X018964Y003937D03*
X018964Y002937D03*
X020464Y002937D03*
X020464Y003937D03*
X003464Y011437D03*
X003464Y012437D03*
X003464Y013437D03*
X006464Y022937D03*
X006464Y023937D03*
X006464Y024937D03*
X022964Y024937D03*
X022964Y023937D03*
X022964Y025937D03*
D22*
X019515Y023937D03*
X018412Y023937D03*
X021912Y021437D03*
X023015Y021437D03*
X017015Y017437D03*
X015912Y017437D03*
X015515Y015437D03*
X014412Y015437D03*
X017912Y015437D03*
X019015Y015437D03*
X032412Y027937D03*
X033515Y027937D03*
X033515Y030437D03*
X032412Y030437D03*
D23*
X030964Y030437D03*
X030964Y029437D03*
X029964Y029437D03*
X029964Y030437D03*
X028964Y030437D03*
X028964Y029437D03*
X027964Y029437D03*
X027964Y030437D03*
X026964Y030437D03*
X026964Y029437D03*
X025964Y029437D03*
X025964Y030437D03*
X024964Y030437D03*
X024964Y029437D03*
X035964Y019937D03*
X036964Y019937D03*
X036964Y018937D03*
X035964Y018937D03*
X035964Y017937D03*
X036964Y017937D03*
X036964Y016937D03*
X035964Y016937D03*
X035964Y015937D03*
X036964Y015937D03*
X036964Y013437D03*
X035964Y013437D03*
X035964Y012437D03*
X036964Y012437D03*
X036964Y011437D03*
X035964Y011437D03*
X035964Y010437D03*
X036964Y010437D03*
X036964Y009437D03*
X035964Y009437D03*
X035964Y008437D03*
X036964Y008437D03*
X036964Y007437D03*
X035964Y007437D03*
X035964Y006437D03*
X036964Y006437D03*
X036964Y005437D03*
X035964Y005437D03*
X015964Y003937D03*
X015964Y002937D03*
X014964Y002937D03*
X013964Y002937D03*
X013964Y003937D03*
X014964Y003937D03*
X012964Y003937D03*
X011964Y003937D03*
X011964Y002937D03*
X012964Y002937D03*
X010964Y002937D03*
X009964Y002937D03*
X009964Y003937D03*
X010964Y003937D03*
X003464Y016437D03*
X002464Y016437D03*
X002464Y017437D03*
X003464Y017437D03*
X003464Y018437D03*
X002464Y018437D03*
X002464Y019437D03*
X003464Y019437D03*
X003464Y020437D03*
X002464Y020437D03*
X002464Y021437D03*
X003464Y021437D03*
X003464Y022437D03*
X002464Y022437D03*
X002464Y023437D03*
X003464Y023437D03*
X003464Y024437D03*
X002464Y024437D03*
D24*
X035464Y023937D03*
X036464Y022947D03*
X036464Y024927D03*
X036464Y026947D03*
X035464Y027937D03*
X036464Y028927D03*
D25*
X022397Y019811D03*
X021531Y019437D03*
X022397Y019063D03*
D26*
X013464Y007989D03*
X013464Y006886D03*
X030964Y006489D03*
X030964Y005386D03*
D27*
X010487Y009187D03*
X010487Y009687D03*
X010487Y010187D03*
X010487Y010687D03*
X008440Y010687D03*
X008440Y010187D03*
X008440Y009687D03*
X008440Y009187D03*
D28*
X007044Y003487D03*
X005484Y003487D03*
D29*
X005464Y003487D01*
X005464Y006537D01*
X008014Y009087D01*
X008114Y009187D01*
X008414Y009187D01*
X008514Y009087D01*
X008864Y009087D01*
X009214Y009087D01*
X008440Y009187D02*
X008414Y009187D01*
X008440Y009187D01*
X008440Y009687D02*
X008464Y009687D01*
X008464Y009787D01*
X008464Y010187D01*
X008464Y010687D01*
X008814Y010687D01*
X008864Y010737D01*
X008864Y010787D01*
X008864Y011037D01*
X008464Y010687D02*
X008440Y010687D01*
X008464Y010187D02*
X008440Y010187D01*
X008440Y009687D02*
X007564Y009687D01*
X004464Y006587D01*
X004464Y002437D01*
X004864Y002037D01*
X006564Y002037D01*
X007114Y002587D01*
X007114Y003487D01*
X007044Y003487D01*
X013214Y008287D02*
X013214Y008787D01*
X013314Y008887D01*
X013214Y008987D01*
X013214Y009687D01*
X013264Y009737D01*
X013264Y011387D01*
X013214Y011437D01*
X013214Y011487D01*
X013214Y013137D01*
X013364Y013287D01*
X013364Y015987D01*
X013314Y016037D01*
X013914Y016037D02*
X014114Y015837D01*
X014114Y015787D01*
X014414Y015487D01*
X014412Y015486D01*
X014412Y015437D01*
X014414Y015437D01*
X014464Y015487D01*
X014714Y015737D01*
X014714Y015787D01*
X014714Y020337D01*
X014714Y020437D01*
X014664Y020437D01*
X014664Y020537D01*
X014664Y022887D01*
X014464Y023087D01*
X014714Y020437D02*
X016714Y020437D01*
X016714Y017787D01*
X016714Y017737D01*
X017014Y017437D01*
X017015Y017437D01*
X019014Y015787D02*
X019014Y015437D01*
X018864Y015287D01*
X018864Y015087D01*
X018864Y014487D01*
X019014Y015437D02*
X019015Y015437D01*
X019014Y015437D01*
X019014Y015787D02*
X019014Y020437D01*
X020214Y021637D01*
X020214Y022087D02*
X020214Y023187D01*
X019814Y023587D01*
X019514Y023887D01*
X019515Y023889D01*
X019515Y023937D01*
X019515Y023889D01*
X019514Y023887D01*
X019214Y023587D01*
X019014Y023387D01*
X021764Y021287D02*
X021914Y021437D01*
X021912Y021437D01*
X021864Y021437D01*
X022214Y021787D01*
X022239Y021812D01*
X022164Y021887D01*
X022164Y028187D01*
X022364Y028387D01*
X022464Y028487D01*
X022464Y028937D01*
X023464Y028937D02*
X023564Y029037D01*
X023564Y029487D01*
X023864Y029787D01*
X023864Y030287D01*
X029964Y030437D02*
X030214Y030437D01*
X030714Y030437D01*
X030964Y030437D01*
X031214Y030437D01*
X032114Y030437D01*
X032114Y030087D01*
X031864Y029837D01*
X031864Y024137D01*
X031964Y024037D01*
X031964Y021887D01*
X030964Y022237D02*
X030964Y024937D01*
X031014Y024937D01*
X030964Y024937D02*
X030964Y027987D01*
X030014Y028937D01*
X030014Y029337D01*
X030014Y029387D01*
X029964Y029437D01*
X032114Y030437D02*
X032412Y030437D01*
X036464Y024937D02*
X036564Y024837D01*
X036564Y024687D01*
X037464Y023787D01*
X037464Y019587D01*
X037064Y019187D01*
X036964Y019087D01*
X036964Y018937D01*
X035964Y018937D02*
X035964Y019087D01*
X035914Y019137D01*
X035864Y019187D01*
X035314Y019737D01*
X035314Y021587D01*
X036464Y024927D02*
X036464Y024937D01*
X030964Y022237D02*
X030764Y022237D01*
X030764Y022137D01*
X029764Y021937D02*
X028914Y021937D01*
X028914Y021787D01*
X027964Y021637D02*
X027864Y021637D01*
X027964Y021637D02*
X027964Y020087D01*
X028264Y019237D02*
X027964Y018937D01*
X027964Y018187D01*
X028064Y018187D01*
X028314Y018187D01*
X027964Y018187D02*
X027964Y014687D01*
X027599Y013752D02*
X027599Y013737D01*
X027599Y012052D01*
X027714Y011937D01*
X027599Y012052D01*
X027649Y012002D02*
X027649Y011937D01*
X027664Y011937D01*
X027714Y011937D01*
X027649Y011937D02*
X027649Y010702D01*
X027664Y010687D01*
X027964Y010387D01*
X028314Y011337D02*
X028314Y011837D01*
X028114Y012037D01*
X028114Y012287D01*
X027964Y012437D01*
X027964Y013637D01*
X026214Y011937D02*
X025964Y011937D01*
X025680Y011937D01*
X025414Y011637D02*
X024664Y011637D01*
X022564Y011987D02*
X022464Y011987D01*
X022464Y012637D01*
X021664Y013437D01*
X022464Y011987D02*
X022464Y009537D01*
X022214Y009287D01*
X022139Y009212D01*
X022264Y009087D01*
X022264Y005637D01*
X022464Y005437D01*
X019964Y003437D02*
X020464Y002937D01*
X019964Y003437D02*
X018464Y003437D01*
X017264Y004637D01*
X017264Y008537D01*
X016864Y008537D01*
X016964Y009537D02*
X016964Y010837D01*
X016964Y011887D02*
X016964Y013337D01*
X018814Y011437D02*
X018664Y011287D01*
X019664Y011737D02*
X019764Y011637D01*
X021064Y011037D02*
X021064Y010287D01*
X022139Y009212D01*
X028279Y009222D02*
X028314Y009187D01*
X029089Y008412D01*
X029164Y008487D01*
X030764Y010087D01*
X030764Y011337D01*
X030764Y011937D01*
X029814Y011637D02*
X029714Y011637D01*
X029714Y011687D01*
X029089Y008412D02*
X030614Y006887D01*
X031014Y006487D01*
X031012Y006489D01*
X030964Y006489D01*
X021531Y019437D02*
X021514Y019437D01*
X021664Y019587D01*
X021764Y019687D01*
X021764Y021087D01*
X021764Y021287D01*
X022239Y021812D02*
X022464Y022037D01*
X024664Y022037D02*
X024664Y021937D01*
X025164Y021937D01*
X026164Y021637D02*
X026214Y021637D01*
X027964Y021637D02*
X027964Y023487D01*
X028264Y023787D01*
X028264Y023837D01*
X027964Y024637D02*
X027964Y024787D01*
X016264Y029337D02*
X016264Y029787D01*
X016264Y029337D02*
X015464Y028537D01*
X014914Y028537D01*
X013914Y027537D01*
X011164Y028487D02*
X010814Y028137D01*
X010523Y027847D01*
X010464Y027847D01*
X010404Y027847D01*
X010164Y028087D01*
X010114Y028087D01*
X008814Y028087D01*
X008764Y028087D01*
X008514Y028337D01*
X008504Y028347D01*
X008464Y028347D01*
X008464Y028337D01*
X008314Y028187D01*
X008314Y028087D01*
X008314Y021687D01*
X009180Y020437D02*
X009464Y020437D01*
X009814Y020437D01*
X008664Y020137D02*
X008664Y023137D01*
X011164Y022287D02*
X011464Y021987D01*
X011464Y019987D01*
X011364Y019987D01*
X011464Y019987D02*
X011464Y019637D01*
X011564Y019637D01*
X012814Y019637D01*
X013014Y019837D01*
X013014Y020037D01*
X011764Y017737D02*
X011764Y017187D01*
X014064Y011437D02*
X014414Y011437D01*
X014680Y011437D01*
X015064Y011137D02*
X015414Y011137D01*
X015414Y011087D01*
X011014Y011037D02*
X011014Y010887D01*
X010914Y010787D01*
X010814Y010687D01*
X010514Y010687D01*
X010487Y010687D01*
X011464Y023137D02*
X011364Y023237D01*
X007064Y027387D02*
X007314Y027637D01*
X008014Y028337D01*
X008414Y028337D01*
X008423Y028347D01*
X008464Y028347D01*
X007064Y027387D02*
X006964Y027387D01*
X006964Y027347D01*
X006964Y027337D01*
X006414Y027887D01*
X005764Y028537D01*
X006914Y027387D02*
X006964Y027387D01*
X006964Y027347D02*
X006964Y027337D01*
X006964Y027347D01*
X010814Y030587D02*
X010814Y030637D01*
X010564Y030887D01*
X010554Y030897D01*
X010554Y030937D01*
X010814Y030587D02*
X011164Y030587D01*
X011164Y030487D01*
X011164Y028487D01*
X013014Y030387D02*
X012814Y030587D01*
X012564Y030587D01*
X011164Y030587D01*
D30*
X010814Y029537D03*
X010014Y030687D03*
X013014Y030387D03*
X014864Y030387D03*
X015314Y030387D03*
X016264Y029787D03*
X015564Y029337D03*
X015064Y029337D03*
X013514Y027537D03*
X012764Y027837D03*
X014064Y025437D03*
X014414Y025387D03*
X014614Y024787D03*
X013714Y023887D03*
X014314Y023587D03*
X014464Y023087D03*
X014314Y022737D03*
X013214Y022137D03*
X013214Y020787D03*
X012664Y019987D03*
X011364Y019987D03*
X010514Y019087D03*
X011064Y018787D03*
X009914Y019087D03*
X009714Y019387D03*
X009564Y018487D03*
X008614Y017687D03*
X007314Y019087D03*
X005464Y020737D03*
X004564Y021187D03*
X003214Y023887D03*
X008314Y021687D03*
X009714Y021337D03*
X010314Y021387D03*
X010814Y021637D03*
X010014Y022087D03*
X011364Y023237D03*
X011814Y023437D03*
X010564Y023587D03*
X008664Y023137D03*
X010014Y020737D03*
X009814Y020437D03*
X010764Y017187D03*
X011764Y017187D03*
X012414Y017187D03*
X013314Y016887D03*
X013314Y016037D03*
X013914Y016037D03*
X013014Y014787D03*
X012414Y015087D03*
X012114Y015437D03*
X011814Y015737D03*
X011464Y014537D03*
X010814Y013887D03*
X012414Y014237D03*
X012714Y013937D03*
X012864Y012737D03*
X013564Y012937D03*
X013864Y012287D03*
X014064Y011437D03*
X013264Y011387D03*
X012864Y011737D03*
X014064Y010637D03*
X014164Y009487D03*
X013564Y009537D03*
X013314Y008887D03*
X013864Y008537D03*
X011614Y009537D03*
X011014Y011037D03*
X009614Y010837D03*
X009464Y010137D03*
X008864Y011037D03*
X007664Y010237D03*
X009214Y009087D03*
X009614Y009187D03*
X011614Y007187D03*
X012214Y005337D03*
X014564Y006587D03*
X016864Y008537D03*
X018064Y008537D03*
X018464Y007387D03*
X019714Y007937D03*
X020414Y006487D03*
X021414Y006437D03*
X021514Y007437D03*
X024064Y005637D03*
X024364Y005437D03*
X022964Y005337D03*
X026364Y007487D03*
X026664Y007687D03*
X026964Y007387D03*
X024764Y009437D03*
X025064Y010337D03*
X024064Y011037D03*
X024664Y011637D03*
X024014Y012587D03*
X023714Y013187D03*
X023514Y013487D03*
X024414Y013437D03*
X024614Y013737D03*
X024314Y014237D03*
X023514Y014837D03*
X024614Y015137D03*
X023514Y015937D03*
X021364Y016537D03*
X020064Y017187D03*
X019364Y017687D03*
X020214Y018237D03*
X017664Y016587D03*
X016064Y015087D03*
X015664Y014487D03*
X015264Y014587D03*
X015314Y014237D03*
X016314Y014237D03*
X017264Y014237D03*
X017814Y014837D03*
X018864Y014487D03*
X018414Y013187D03*
X017864Y013137D03*
X018364Y012587D03*
X017614Y011987D03*
X016964Y011887D03*
X016364Y011787D03*
X016064Y012837D03*
X015214Y012387D03*
X014714Y013337D03*
X015414Y011087D03*
X015414Y010737D03*
X016614Y009837D03*
X017514Y009737D03*
X017964Y009737D03*
X018064Y010537D03*
X017664Y010537D03*
X016964Y010837D03*
X018664Y011287D03*
X019764Y011637D03*
X020464Y010887D03*
X021064Y011037D03*
X020064Y009937D03*
X022114Y009737D03*
X022564Y011987D03*
X021064Y012837D03*
X021664Y013437D03*
X020764Y014587D03*
X020414Y015387D03*
X019764Y012587D03*
X015464Y016887D03*
X013714Y018487D03*
X014364Y018887D03*
X015064Y019187D03*
X015364Y018887D03*
X018514Y022037D03*
X019314Y021237D03*
X019564Y020487D03*
X020814Y020737D03*
X021414Y020487D03*
X020214Y021637D03*
X020214Y022087D03*
X020814Y022987D03*
X022464Y022037D03*
X024064Y022387D03*
X024664Y022037D03*
X024714Y021337D03*
X025114Y020837D03*
X026214Y020837D03*
X026214Y021637D03*
X027064Y022387D03*
X027064Y022887D03*
X027564Y023637D03*
X028614Y023487D03*
X029714Y023237D03*
X029714Y022887D03*
X030764Y022137D03*
X031614Y022737D03*
X031964Y021887D03*
X033164Y022437D03*
X031614Y023887D03*
X031014Y024937D03*
X029864Y024487D03*
X028264Y025987D03*
X028314Y026437D03*
X028864Y027837D03*
X028764Y028787D03*
X029464Y029537D03*
X031514Y029487D03*
X027564Y028487D03*
X027264Y028987D03*
X026064Y028187D03*
X023864Y030287D03*
X020014Y030137D03*
X017164Y030587D03*
X018714Y027087D03*
X020064Y026187D03*
X019764Y025487D03*
X021814Y026787D03*
X024464Y025687D03*
X024764Y024787D03*
X025314Y024187D03*
X025714Y024187D03*
X026214Y022837D03*
X027864Y021637D03*
X028914Y021787D03*
X029714Y020987D03*
X029464Y020187D03*
X030864Y020637D03*
X030864Y020987D03*
X032164Y019487D03*
X032814Y019787D03*
X034414Y020087D03*
X035314Y021587D03*
X035764Y022887D03*
X036714Y025387D03*
X033164Y025687D03*
X027964Y024787D03*
X026464Y025687D03*
X023864Y023187D03*
X023514Y020737D03*
X023514Y019637D03*
X023514Y018887D03*
X024914Y019087D03*
X025814Y019287D03*
X026114Y018237D03*
X025414Y017987D03*
X027014Y017387D03*
X028314Y018187D03*
X028914Y018487D03*
X028614Y017087D03*
X028314Y015937D03*
X029214Y015037D03*
X029514Y015287D03*
X028914Y014787D03*
X027614Y014787D03*
X026114Y015237D03*
X026814Y013187D03*
X026214Y012587D03*
X026214Y011937D03*
X027314Y011137D03*
X028014Y010837D03*
X028314Y011337D03*
X027714Y011937D03*
X028614Y012637D03*
X028364Y012887D03*
X028714Y012287D03*
X029114Y012687D03*
X029514Y013487D03*
X029814Y013787D03*
X030864Y013987D03*
X030864Y013487D03*
X031564Y012087D03*
X030764Y011337D03*
X031464Y010687D03*
X029514Y010987D03*
X029714Y011687D03*
X029514Y010187D03*
X028914Y010187D03*
X026914Y010337D03*
X025164Y012837D03*
X028914Y013687D03*
X033014Y013187D03*
X033764Y013037D03*
X033964Y011437D03*
X034964Y010837D03*
X034064Y014737D03*
X034164Y015087D03*
X034114Y017587D03*
X032464Y017587D03*
X031864Y017587D03*
X031464Y018487D03*
X026964Y019087D03*
X026814Y020187D03*
X019014Y023387D03*
X018164Y023037D03*
X017114Y025987D03*
X012164Y025387D03*
X007514Y028987D03*
X003764Y010237D03*
X004164Y009437D03*
X030264Y006737D03*
X037414Y017487D03*
D31*
X030764Y022137D02*
X030764Y022237D01*
X030749Y022252D01*
X030247Y022252D01*
X030247Y021937D02*
X029814Y021937D01*
X029764Y021937D01*
X027964Y020087D02*
X027964Y020037D01*
X027964Y019654D01*
X028279Y019654D02*
X028279Y019252D01*
X028264Y019237D01*
X026149Y021622D02*
X025680Y021622D01*
X025680Y021937D02*
X025164Y021937D01*
X026149Y021622D02*
X026164Y021637D01*
X028264Y023837D02*
X028279Y023852D01*
X028279Y024221D01*
X027964Y024237D02*
X027964Y024221D01*
X027964Y024237D02*
X027964Y024637D01*
X027964Y014687D02*
X027964Y014237D01*
X027964Y013637D01*
X027614Y013737D02*
X027614Y013787D01*
X027649Y013822D01*
X027649Y014221D01*
X027964Y014237D02*
X027964Y014221D01*
X027614Y013737D02*
X027599Y013737D01*
X025680Y011622D02*
X025429Y011622D01*
X025414Y011637D01*
X027964Y010387D02*
X027964Y009654D01*
X028279Y009654D02*
X028279Y009252D01*
X028264Y009237D01*
X028279Y009222D01*
X029714Y011687D02*
X029764Y011687D01*
X029814Y011637D01*
X029829Y011622D01*
X030247Y011622D01*
X030247Y011937D02*
X030764Y011937D01*
X019664Y011737D02*
X019649Y011752D01*
X019247Y011752D01*
X019247Y011437D02*
X018814Y011437D01*
X016964Y013337D02*
X016964Y013487D01*
X016964Y013721D01*
X017280Y013721D02*
X017280Y014221D01*
X017264Y014237D01*
X015064Y011137D02*
X015049Y011122D01*
X014680Y011122D01*
X016964Y009537D02*
X016964Y009154D01*
X017279Y009154D02*
X017279Y008552D01*
X017264Y008537D01*
X011764Y017737D02*
X011779Y017752D01*
X011779Y018154D01*
X011464Y018154D02*
X011464Y019637D01*
X013014Y020037D02*
X013014Y020087D01*
X013049Y020122D01*
X013079Y020122D01*
X013747Y020122D01*
X013747Y020437D02*
X014714Y020437D01*
X011464Y022721D02*
X011464Y023137D01*
X011364Y023237D01*
X011149Y022721D02*
X011149Y022302D01*
X011164Y022287D01*
X011149Y022302D01*
X009180Y020122D02*
X008679Y020122D01*
X008664Y020137D01*
D32*
X013214Y008287D02*
X013214Y008237D01*
X013464Y007987D01*
X013464Y007989D01*
D33*
X004614Y001587D02*
X003814Y002387D01*
X003814Y006787D01*
X004464Y007437D01*
X004464Y009337D01*
X004464Y015287D01*
X003564Y016187D01*
X003464Y016287D01*
X003464Y016437D01*
X003014Y016287D02*
X003014Y017837D01*
X003364Y018187D01*
X003464Y018287D01*
X003464Y018437D01*
X003564Y019187D02*
X003464Y019287D01*
X003464Y019437D01*
X003564Y019187D02*
X009164Y013587D01*
X009164Y010437D01*
X009464Y010137D01*
X009614Y010837D02*
X009614Y018437D01*
X009564Y018487D01*
X009914Y018437D02*
X009914Y018187D01*
X009889Y018163D01*
X009889Y018154D01*
X009914Y018437D02*
X009914Y019087D01*
X009664Y019237D02*
X009664Y019337D01*
X009714Y019387D01*
X009664Y019237D02*
X009464Y019237D01*
X009264Y019237D01*
X009214Y019187D01*
X009204Y019177D01*
X009180Y019177D01*
X009164Y019437D02*
X008914Y019437D01*
X008614Y019437D01*
X008614Y017687D01*
X008714Y017387D02*
X008914Y017587D01*
X008914Y018787D01*
X009114Y018787D01*
X009164Y018837D01*
X009180Y018854D01*
X009180Y018863D01*
X009164Y019437D02*
X009214Y019487D01*
X009209Y019492D01*
X009180Y019492D01*
X009180Y019807D02*
X009180Y019821D01*
X009164Y019837D01*
X008914Y019837D01*
X007364Y019837D01*
X007364Y024937D01*
X006914Y025387D01*
X002014Y025387D01*
X002014Y024037D01*
X002364Y023687D01*
X002464Y023587D01*
X002464Y023437D01*
X003214Y023887D02*
X002714Y024387D01*
X002514Y024387D01*
X002464Y024437D01*
X003464Y023437D02*
X003464Y023287D01*
X003564Y023187D01*
X003914Y022837D01*
X003914Y022287D01*
X005464Y020737D01*
X005764Y020637D02*
X005764Y023387D01*
X006064Y023687D01*
X006314Y023937D01*
X006464Y023937D01*
X007164Y024387D02*
X006864Y024687D01*
X006614Y024937D01*
X006464Y024937D01*
X007164Y024387D02*
X007164Y019737D01*
X007614Y019287D01*
X007614Y017387D01*
X008714Y017387D01*
X010204Y018154D02*
X010204Y018177D01*
X010214Y018187D01*
X010214Y018437D01*
X010214Y020537D01*
X010314Y020637D01*
X010314Y021387D01*
X010014Y021037D02*
X010014Y022087D01*
X010204Y022721D02*
X010204Y022927D01*
X010264Y022987D01*
X010264Y024337D01*
X012464Y026537D01*
X013314Y026537D01*
X013314Y026737D01*
X013314Y026987D01*
X013314Y027437D01*
X013414Y027537D01*
X013514Y027537D01*
X013114Y027287D02*
X013064Y027237D01*
X013064Y026987D01*
X013068Y026992D01*
X013068Y027010D01*
X013314Y026987D02*
X013324Y026998D01*
X013324Y027010D01*
X013324Y026998D01*
X013314Y026987D01*
X013114Y027287D02*
X013114Y028287D01*
X014314Y029487D01*
X014314Y029587D01*
X014364Y029637D01*
X014364Y029887D01*
X014347Y029871D01*
X014347Y029864D01*
X014347Y029871D01*
X014364Y029887D01*
X014364Y030087D01*
X014314Y030137D01*
X014314Y031487D01*
X009014Y031487D01*
X008914Y031387D01*
X008914Y031087D01*
X008114Y031087D01*
X008014Y031087D01*
X007864Y030937D01*
X007897Y030937D01*
X007514Y030537D02*
X009114Y030537D01*
X009114Y030587D01*
X009114Y030687D01*
X009364Y030937D01*
X009373Y030937D01*
X010014Y030687D02*
X008864Y029537D01*
X008854Y029528D01*
X008464Y029528D01*
X008454Y029528D01*
X008414Y029487D01*
X008214Y029287D01*
X008114Y029287D01*
X005264Y029287D01*
X005229Y029252D01*
X004849Y029252D01*
X004849Y028937D02*
X005164Y028937D01*
X005214Y028887D01*
X006614Y028887D01*
X006914Y028587D01*
X006964Y028537D01*
X006964Y028528D01*
X006973Y028528D01*
X007014Y028487D01*
X007314Y028787D01*
X007514Y028987D01*
X006814Y029637D02*
X006814Y030787D01*
X006864Y030787D01*
X007014Y030937D01*
X007031Y030937D01*
X007114Y030937D01*
X007264Y030787D01*
X007514Y030537D01*
X006814Y029637D02*
X005214Y029637D01*
X004964Y029637D01*
X004914Y029587D01*
X004894Y029567D01*
X004849Y029567D01*
X005214Y029287D02*
X005264Y029287D01*
X008814Y029487D02*
X008864Y029537D01*
X010464Y029037D02*
X010714Y029287D01*
X010814Y029287D01*
X010814Y029537D01*
X010464Y029037D02*
X010464Y029028D01*
X012314Y027387D02*
X012314Y027287D01*
X012314Y027037D01*
X012300Y027024D01*
X012300Y027010D01*
X012300Y027024D01*
X012314Y027037D01*
X012264Y026987D01*
X012264Y026737D01*
X009614Y024087D01*
X009614Y021737D01*
X009464Y021737D01*
X009214Y021737D01*
X009164Y021687D01*
X009173Y021697D01*
X009180Y021697D01*
X009214Y021387D02*
X009264Y021337D01*
X009464Y021337D01*
X009714Y021337D01*
X009464Y021037D02*
X009264Y021037D01*
X009214Y021087D01*
X009194Y021067D01*
X009180Y021067D01*
X009464Y021037D02*
X010014Y021037D01*
X010014Y020737D02*
X009464Y020737D01*
X009214Y020737D01*
X009199Y020752D01*
X009180Y020752D01*
X009209Y021382D02*
X009180Y021382D01*
X009209Y021382D02*
X009214Y021387D01*
X010814Y021637D02*
X010814Y022437D01*
X010834Y022457D01*
X010834Y022721D01*
X010519Y022721D02*
X010519Y022942D01*
X010564Y022987D01*
X010564Y023587D01*
X011464Y023187D02*
X011464Y023137D01*
X011779Y022952D02*
X011814Y022987D01*
X011814Y023437D01*
X011779Y022952D02*
X011779Y022721D01*
X012094Y022721D02*
X012094Y022917D01*
X012164Y022987D01*
X012164Y025387D01*
X012464Y023837D02*
X014064Y025437D01*
X014414Y025387D02*
X012764Y023737D01*
X012764Y022987D01*
X012723Y022947D01*
X012723Y022721D01*
X012409Y022721D02*
X012409Y022932D01*
X012464Y022987D01*
X012464Y023837D01*
X013114Y022987D02*
X013038Y022912D01*
X013038Y022721D01*
X013114Y022987D02*
X013714Y023587D01*
X013714Y023887D01*
X014314Y023587D02*
X018014Y027287D01*
X018014Y030087D01*
X018314Y030387D01*
X018464Y030537D01*
X018464Y030937D01*
X018264Y031687D02*
X022314Y031687D01*
X022314Y031487D01*
X022314Y031037D01*
X022464Y030887D01*
X022464Y030937D01*
X021464Y030937D02*
X021464Y030537D01*
X021314Y030387D01*
X020914Y029987D01*
X020914Y026637D01*
X019764Y025487D01*
X020064Y026187D02*
X020314Y026437D01*
X020314Y030387D01*
X020464Y030537D01*
X020464Y030937D01*
X020014Y030137D02*
X019914Y030037D01*
X019914Y026437D01*
X017714Y024237D01*
X017714Y016687D01*
X017664Y016637D01*
X017664Y016587D01*
X018564Y015687D01*
X018564Y014337D01*
X018964Y013937D01*
X018964Y013087D01*
X019039Y013012D01*
X019247Y013012D01*
X019247Y012697D02*
X018904Y012697D01*
X018864Y012737D01*
X018914Y012687D01*
X018864Y012737D02*
X018414Y013187D01*
X017914Y013087D02*
X017864Y013137D01*
X017864Y013437D01*
X017864Y013487D01*
X017909Y013532D01*
X017909Y013721D01*
X017614Y013687D02*
X017564Y013637D01*
X017564Y013437D01*
X017564Y012037D01*
X017614Y011987D01*
X018364Y012587D02*
X018364Y010537D01*
X018964Y010537D01*
X019214Y010537D01*
X019264Y010487D01*
X019259Y010492D01*
X019247Y010492D01*
X019264Y010787D02*
X019314Y010787D01*
X019514Y010787D01*
X019964Y010787D01*
X019964Y010037D01*
X020064Y009937D01*
X019714Y010137D02*
X019714Y007937D01*
X019264Y007687D02*
X019264Y007637D01*
X019464Y007437D01*
X019264Y007687D02*
X019264Y009787D01*
X019264Y009837D01*
X019247Y009854D01*
X019247Y009863D01*
X019314Y010137D02*
X019264Y010187D01*
X019254Y010177D01*
X019247Y010177D01*
X019314Y010137D02*
X019514Y010137D01*
X019714Y010137D01*
X020164Y010437D02*
X020414Y010187D01*
X020414Y006487D01*
X021414Y006437D02*
X021464Y006437D01*
X021464Y007437D02*
X021514Y007437D01*
X024064Y005637D02*
X024064Y011037D01*
X024764Y011237D02*
X024764Y009437D01*
X025064Y010337D02*
X025214Y010487D01*
X025214Y010837D01*
X025414Y011037D01*
X025614Y011037D01*
X025664Y010987D01*
X025669Y010992D01*
X025680Y010992D01*
X025919Y010992D01*
X025964Y011037D01*
X026514Y011037D01*
X026514Y013437D01*
X026114Y013837D01*
X026114Y015237D01*
X026664Y014487D02*
X026704Y014447D01*
X026704Y014221D01*
X026664Y014487D02*
X026664Y016737D01*
X025414Y017987D01*
X025314Y018287D02*
X025664Y018287D01*
X025814Y018137D01*
X026014Y017937D01*
X026664Y017937D01*
X026664Y017737D01*
X027014Y017387D01*
X026664Y017937D02*
X026664Y019387D01*
X026664Y019587D01*
X026714Y019637D01*
X026704Y019647D01*
X026704Y019654D01*
X026964Y019687D02*
X027014Y019637D01*
X027019Y019642D01*
X027019Y019654D01*
X026964Y019687D02*
X026964Y019937D01*
X026964Y020037D01*
X026814Y020187D01*
X026764Y020237D01*
X026764Y020287D01*
X026764Y023187D01*
X026114Y023837D01*
X026114Y027837D01*
X027264Y028987D01*
X027564Y028987D02*
X027564Y029237D01*
X027414Y029387D01*
X027414Y029837D01*
X027064Y030187D01*
X027064Y030337D01*
X026964Y030437D01*
X027364Y030887D02*
X024164Y030887D01*
X024164Y022487D01*
X024064Y022387D01*
X024064Y022337D01*
X024014Y022287D01*
X024014Y012587D01*
X023714Y013187D02*
X023814Y013287D01*
X023814Y020837D01*
X023764Y020887D01*
X023764Y023087D01*
X023864Y023187D01*
X023564Y023637D02*
X023664Y023737D01*
X023664Y025387D01*
X023364Y025687D01*
X023114Y025937D01*
X022964Y025937D01*
X021814Y026787D02*
X021414Y026387D01*
X021414Y020487D01*
X020814Y020737D02*
X020814Y018337D01*
X021064Y018087D01*
X021064Y012837D01*
X020064Y012287D02*
X020064Y017187D01*
X019714Y017337D02*
X019364Y017687D01*
X019714Y017337D02*
X019714Y012637D01*
X019764Y012587D01*
X019614Y012337D02*
X019664Y012287D01*
X020064Y012287D01*
X020414Y012037D02*
X019514Y012037D01*
X019264Y012037D01*
X019214Y012087D01*
X019234Y012067D01*
X019247Y012067D01*
X019314Y012337D02*
X019264Y012387D01*
X019259Y012382D01*
X019247Y012382D01*
X019314Y012337D02*
X019514Y012337D01*
X019614Y012337D01*
X020414Y012037D02*
X020414Y015387D01*
X020514Y015487D01*
X020514Y022687D01*
X020814Y022987D01*
X019314Y021237D02*
X018514Y022037D01*
X018164Y023037D02*
X018164Y023587D01*
X018164Y023687D01*
X018414Y023937D01*
X018412Y023937D01*
X017464Y025837D02*
X017464Y016937D01*
X016414Y015887D01*
X016389Y015862D01*
X017564Y014687D01*
X017564Y013987D01*
X017564Y013837D01*
X017614Y013787D01*
X017594Y013767D01*
X017594Y013721D01*
X017594Y013707D01*
X017614Y013687D01*
X017314Y013687D02*
X017280Y013721D01*
X017279Y013721D01*
X016664Y013737D02*
X016614Y013787D01*
X016614Y013987D01*
X016614Y014337D01*
X016164Y014787D01*
X015764Y014787D01*
X015764Y015087D01*
X015764Y015187D01*
X015514Y015437D01*
X015515Y015437D01*
X015514Y015437D01*
X015464Y015387D01*
X015264Y015187D01*
X015264Y015087D01*
X015264Y014587D01*
X015314Y014237D02*
X015314Y013987D01*
X015364Y013937D01*
X015364Y013737D01*
X015380Y013721D01*
X015389Y013721D01*
X015664Y013787D02*
X015664Y013987D01*
X015664Y014487D01*
X016314Y014237D02*
X016314Y013987D01*
X016314Y013787D01*
X016364Y013737D01*
X016347Y013721D01*
X016334Y013721D01*
X016064Y013637D02*
X016014Y013687D01*
X016019Y013692D01*
X016019Y013721D01*
X016064Y013637D02*
X016064Y013437D01*
X016064Y013287D01*
X016664Y012687D01*
X016664Y009887D01*
X016614Y009837D01*
X016314Y009437D02*
X016314Y009187D01*
X016334Y009167D01*
X016334Y009154D01*
X016314Y009437D02*
X016314Y011737D01*
X016364Y011787D01*
X016064Y012837D02*
X016064Y009437D01*
X016064Y009287D01*
X016014Y009237D01*
X016019Y009232D01*
X016019Y009154D01*
X015714Y009187D02*
X015714Y009437D01*
X015714Y012737D01*
X014964Y013487D01*
X014964Y016887D01*
X015464Y016887D01*
X014964Y016887D02*
X014964Y019087D01*
X015064Y019187D01*
X015364Y018887D02*
X016364Y017887D01*
X016364Y015887D01*
X016389Y015862D01*
X016064Y015087D02*
X016064Y017087D01*
X016064Y017287D01*
X015914Y017437D01*
X015912Y017437D01*
X014364Y018887D02*
X014214Y019037D01*
X014214Y019637D01*
X014014Y019837D01*
X013764Y019837D01*
X013747Y019821D01*
X013747Y019807D01*
X013747Y019492D02*
X013419Y019492D01*
X013414Y019487D01*
X013314Y019387D01*
X013314Y018637D01*
X013589Y018362D01*
X013614Y018387D01*
X013714Y018487D01*
X013589Y018362D02*
X013614Y018337D01*
X013614Y014437D01*
X014714Y013337D01*
X014680Y013012D02*
X014488Y013012D01*
X014414Y012937D01*
X013564Y012937D01*
X013564Y012587D02*
X013564Y009537D01*
X013764Y009737D02*
X013864Y009637D01*
X013864Y008537D01*
X014164Y009487D02*
X014864Y008787D01*
X014864Y004187D01*
X014964Y004087D01*
X014964Y003937D01*
X015864Y004187D02*
X015964Y004087D01*
X015964Y003937D01*
X015864Y004187D02*
X015114Y004937D01*
X015114Y010437D01*
X014964Y010437D01*
X014914Y010487D01*
X014714Y010487D01*
X014709Y010492D01*
X014680Y010492D01*
X014714Y010787D02*
X014694Y010807D01*
X014680Y010807D01*
X014714Y010787D02*
X014914Y010787D01*
X014964Y010737D01*
X015414Y010737D01*
X014680Y010177D02*
X014680Y010154D01*
X014664Y010137D01*
X014414Y010137D01*
X014214Y010337D01*
X014214Y010487D01*
X014064Y010637D01*
X013764Y009737D02*
X013764Y011737D01*
X014414Y011737D01*
X014614Y011737D01*
X014629Y011752D01*
X014680Y011752D01*
X014680Y012067D02*
X014534Y012067D01*
X014514Y012087D01*
X014464Y012137D01*
X014414Y012137D01*
X013864Y012137D01*
X013864Y012287D01*
X014114Y012437D02*
X013964Y012587D01*
X013564Y012587D01*
X014114Y012437D02*
X014414Y012437D01*
X014469Y012382D01*
X014680Y012382D01*
X014664Y012687D02*
X014914Y012687D01*
X014964Y012637D01*
X015064Y012637D01*
X015214Y012487D01*
X015214Y012387D01*
X014680Y012697D02*
X014673Y012697D01*
X014664Y012687D01*
X015704Y013721D02*
X015704Y013747D01*
X015664Y013787D01*
X016649Y013722D02*
X016649Y013721D01*
X016649Y013722D02*
X016664Y013737D01*
X017814Y014837D02*
X017814Y015087D01*
X017814Y015287D01*
X017914Y015387D01*
X017912Y015389D01*
X017912Y015437D01*
X017914Y013087D02*
X017914Y010687D01*
X018064Y010537D01*
X017664Y010537D02*
X018614Y009587D01*
X018814Y009587D01*
X018814Y007687D01*
X018764Y007637D01*
X018764Y004187D01*
X018764Y004137D01*
X018964Y003937D01*
X020464Y003937D02*
X020714Y004187D01*
X020764Y004237D01*
X020764Y014587D01*
X022964Y014287D02*
X022964Y005337D01*
X023264Y004837D02*
X020914Y002487D01*
X015364Y002487D01*
X015114Y002737D01*
X015064Y002787D01*
X014964Y002887D01*
X014964Y002937D01*
X016014Y003387D02*
X013414Y003387D01*
X013414Y002787D01*
X012614Y001987D01*
X012214Y001587D01*
X004614Y001587D01*
X009714Y004187D02*
X009864Y004037D01*
X009964Y003937D01*
X009714Y004187D02*
X009714Y009087D01*
X009614Y009187D01*
X010487Y009187D02*
X010814Y009187D01*
X010914Y009087D01*
X011614Y008387D01*
X011614Y007187D01*
X013464Y006887D02*
X013764Y006587D01*
X013814Y006587D01*
X014564Y006587D01*
X013464Y006886D02*
X013464Y006887D01*
X012814Y005237D02*
X013864Y004187D01*
X013964Y004087D01*
X013964Y003937D01*
X012964Y003937D02*
X012864Y004037D01*
X012564Y004337D01*
X012564Y012437D01*
X012864Y012737D01*
X013014Y013337D02*
X012214Y012537D01*
X012214Y005337D01*
X012814Y005237D02*
X012814Y011687D01*
X012864Y011737D01*
X013014Y013337D02*
X013014Y014787D01*
X012414Y015087D02*
X011314Y013987D01*
X011314Y010187D01*
X011139Y010012D01*
X011164Y009987D01*
X011614Y009537D01*
X011139Y010012D02*
X010914Y009787D01*
X010814Y009687D01*
X010487Y009687D01*
X007664Y010237D02*
X004664Y013237D01*
X004664Y016087D01*
X003564Y017187D01*
X003464Y017287D01*
X003464Y017437D01*
X002464Y018287D02*
X002364Y018187D01*
X002014Y017837D01*
X002014Y011987D01*
X003764Y010237D01*
X004164Y009437D02*
X004164Y015137D01*
X003014Y016287D01*
X002464Y018287D02*
X002464Y018437D01*
X004564Y021187D02*
X003564Y022187D01*
X003564Y022387D01*
X003514Y022437D01*
X003464Y022437D01*
X005764Y020637D02*
X007314Y019087D01*
X010514Y019087D02*
X010514Y018437D01*
X010514Y018187D01*
X010519Y018182D01*
X010519Y018154D01*
X010814Y018087D02*
X010814Y017937D01*
X010764Y017887D01*
X010764Y017187D01*
X010814Y018087D02*
X010834Y018107D01*
X010834Y018154D01*
X011114Y018187D02*
X011114Y018387D01*
X011064Y018437D01*
X011064Y018787D01*
X011114Y018187D02*
X011147Y018154D01*
X011149Y018154D01*
X012094Y018154D02*
X012094Y018107D01*
X012114Y018087D01*
X012114Y017887D01*
X012114Y015437D01*
X011814Y015737D02*
X009914Y013837D01*
X009914Y005587D01*
X011514Y003987D01*
X011514Y003787D01*
X011914Y003387D01*
X012564Y003387D01*
X012914Y003037D01*
X012964Y002987D01*
X012964Y002937D01*
X011964Y003937D02*
X011914Y003987D01*
X011914Y004187D01*
X011914Y013737D01*
X012414Y014237D01*
X012714Y013937D02*
X012714Y017887D01*
X012714Y018137D01*
X012723Y018147D01*
X012723Y018154D01*
X012414Y018137D02*
X012414Y017887D01*
X012414Y017187D01*
X013314Y016887D02*
X013314Y017687D01*
X013114Y017887D01*
X013114Y018087D01*
X013064Y018137D01*
X013047Y018154D01*
X013038Y018154D01*
X012414Y018137D02*
X012409Y018142D01*
X012409Y018154D01*
X012664Y019987D02*
X012664Y021337D01*
X013464Y021337D01*
X013509Y021382D01*
X013747Y021382D01*
X013744Y021067D02*
X013747Y021067D01*
X013744Y021067D02*
X013714Y021037D01*
X013514Y021037D01*
X013464Y020987D01*
X013214Y020987D01*
X013214Y020787D01*
X013747Y020752D02*
X013929Y020752D01*
X014014Y020837D01*
X014314Y020837D01*
X014314Y022737D01*
X014014Y022087D02*
X013814Y022087D01*
X013764Y022037D01*
X013747Y022021D01*
X013747Y022012D01*
X014014Y022087D02*
X014014Y024587D01*
X017164Y027737D01*
X017164Y030587D01*
X017464Y030887D02*
X018264Y031687D01*
X017464Y030887D02*
X017464Y027637D01*
X014614Y024787D01*
X017114Y025987D02*
X019014Y027887D01*
X019014Y030087D01*
X019314Y030387D01*
X019464Y030537D01*
X019464Y030937D01*
X021464Y028937D02*
X021464Y028887D01*
X021364Y028787D01*
X021364Y028387D01*
X021114Y028137D01*
X021114Y018337D01*
X023514Y015937D01*
X024314Y015237D02*
X024314Y014237D01*
X024614Y013737D02*
X024614Y015137D01*
X024364Y015287D02*
X024314Y015237D01*
X024364Y015287D02*
X024364Y022337D01*
X025264Y022337D01*
X025349Y022252D01*
X025680Y022252D01*
X025680Y022567D02*
X025334Y022567D01*
X025264Y022637D01*
X024464Y022637D01*
X024464Y025687D01*
X024764Y024787D02*
X024764Y024737D01*
X025314Y024187D01*
X025714Y024187D02*
X025714Y023587D01*
X025664Y023537D01*
X025680Y023521D01*
X025680Y023512D01*
X025680Y023197D02*
X025904Y023197D01*
X025964Y023137D01*
X026514Y023137D01*
X026514Y020437D01*
X026114Y020037D01*
X026114Y018237D01*
X025314Y018287D02*
X025114Y018087D01*
X025114Y013237D01*
X025414Y013237D01*
X025454Y013197D01*
X025680Y013197D01*
X025680Y012882D02*
X025459Y012882D01*
X025414Y012837D01*
X025164Y012837D01*
X025664Y012587D02*
X025964Y012587D01*
X026214Y012587D01*
X025680Y012571D02*
X025680Y012567D01*
X025680Y012571D02*
X025664Y012587D01*
X025680Y012252D02*
X025499Y012252D01*
X025414Y012337D01*
X024864Y012337D01*
X024864Y013587D01*
X024914Y013637D01*
X024914Y019087D01*
X025814Y019287D02*
X024814Y020287D01*
X024814Y021237D01*
X025214Y021237D01*
X025284Y021307D01*
X025680Y021307D01*
X025680Y020992D02*
X026059Y020992D01*
X026214Y020837D01*
X025680Y020677D02*
X025273Y020677D01*
X025114Y020837D01*
X024814Y021237D02*
X024714Y021337D01*
X024814Y021237D01*
X023564Y020787D02*
X023514Y020737D01*
X023564Y020787D02*
X023564Y023637D01*
X023014Y023687D02*
X023014Y023887D01*
X022964Y023937D01*
X023014Y023687D02*
X023014Y021787D01*
X023014Y021437D01*
X023015Y021437D01*
X022414Y019837D02*
X022614Y019637D01*
X022664Y019637D01*
X023514Y019637D01*
X023514Y018887D02*
X022664Y018887D01*
X022564Y018887D01*
X022414Y019037D01*
X022397Y019054D01*
X022397Y019063D01*
X022397Y019811D02*
X022397Y019820D01*
X022414Y019837D01*
X020214Y019837D02*
X020214Y018237D01*
X020214Y019837D02*
X019564Y020487D01*
X021364Y016537D02*
X021364Y010487D01*
X022114Y009737D01*
X020464Y010887D02*
X020464Y012037D01*
X020414Y012037D01*
X020164Y011087D02*
X019514Y011087D01*
X019314Y011087D01*
X019264Y011137D01*
X019249Y011122D01*
X019247Y011122D01*
X019247Y010807D02*
X019247Y010804D01*
X019264Y010787D01*
X020164Y011087D02*
X020164Y010437D01*
X018538Y009154D02*
X018538Y008762D01*
X018514Y008737D01*
X018464Y008687D01*
X018464Y007387D01*
X018064Y008537D02*
X018214Y008687D01*
X018223Y008697D01*
X018223Y009154D01*
X017909Y009154D02*
X017909Y009382D01*
X017964Y009437D01*
X017964Y009737D01*
X017514Y009737D02*
X017514Y009437D01*
X017564Y009387D01*
X017564Y009187D01*
X017594Y009157D01*
X017594Y009154D01*
X016649Y009154D02*
X016649Y008972D01*
X016564Y008887D01*
X016564Y003937D01*
X016014Y003387D01*
X015704Y009154D02*
X015704Y009177D01*
X015714Y009187D01*
X010814Y013887D02*
X011464Y014537D01*
X013214Y021737D02*
X013214Y022137D01*
X013214Y021737D02*
X013464Y021737D01*
X013504Y021697D01*
X013747Y021697D01*
X017464Y025837D02*
X018714Y027087D01*
X015564Y029337D02*
X015564Y029587D01*
X015614Y029587D01*
X015627Y029601D01*
X015627Y029864D01*
X015371Y029864D02*
X015371Y030080D01*
X015314Y030137D01*
X015314Y030387D01*
X015115Y029864D02*
X015115Y029639D01*
X015064Y029587D01*
X015064Y029337D01*
X014603Y029864D02*
X014603Y029877D01*
X014614Y029887D01*
X014564Y029887D01*
X014364Y029887D01*
X012764Y027837D02*
X012314Y027387D01*
X024964Y030437D02*
X025064Y030337D01*
X025064Y030187D01*
X025414Y029837D01*
X025414Y028837D01*
X026064Y028187D01*
X027564Y028487D02*
X028614Y027437D01*
X028614Y024487D01*
X028614Y024237D01*
X028597Y024221D01*
X028594Y024221D01*
X028864Y024337D02*
X028864Y024487D01*
X028864Y027837D01*
X029514Y028387D02*
X030714Y027187D01*
X030714Y023037D01*
X030564Y022887D01*
X030214Y022887D01*
X029964Y022887D01*
X029714Y022887D01*
X029714Y023237D02*
X029964Y023237D01*
X030164Y023237D01*
X030214Y023187D01*
X030223Y023197D01*
X030247Y023197D01*
X030264Y023487D02*
X030164Y023587D01*
X030164Y027387D01*
X028764Y028787D01*
X028164Y028987D02*
X027564Y028987D01*
X028164Y028987D02*
X029814Y027337D01*
X029814Y024487D01*
X029864Y024487D01*
X029814Y024487D02*
X029814Y023837D01*
X029414Y023437D01*
X029414Y022587D01*
X029964Y022587D01*
X030164Y022587D01*
X030214Y022537D01*
X030244Y022567D01*
X030247Y022567D01*
X030247Y022882D02*
X030219Y022882D01*
X030214Y022887D01*
X030219Y022882D01*
X030247Y022882D01*
X030264Y023487D02*
X030247Y023504D01*
X030247Y023512D01*
X031514Y023987D02*
X031514Y029487D01*
X030514Y029887D02*
X030514Y028837D01*
X031314Y028037D01*
X031314Y021687D01*
X031464Y021537D01*
X031464Y018487D01*
X031864Y017587D02*
X031864Y011087D01*
X031464Y010687D01*
X030247Y010992D02*
X030219Y010992D01*
X030214Y010987D01*
X029964Y010987D01*
X029514Y010987D01*
X029414Y011337D02*
X029414Y011587D01*
X028714Y012287D01*
X028414Y012437D02*
X028414Y012137D01*
X029164Y011387D01*
X029214Y011387D01*
X029214Y009937D01*
X029223Y009927D01*
X029223Y009654D01*
X029514Y009687D02*
X029514Y009937D01*
X029514Y010187D01*
X029514Y009687D02*
X029564Y009637D01*
X029547Y009654D01*
X029538Y009654D01*
X028909Y009654D02*
X028909Y009932D01*
X028914Y009937D01*
X028914Y010187D01*
X028514Y010337D02*
X028514Y009937D01*
X028594Y009857D01*
X028594Y009654D01*
X028514Y010337D02*
X028014Y010837D01*
X027314Y011137D02*
X027314Y013937D01*
X027334Y013957D01*
X027334Y014221D01*
X027334Y014467D01*
X027314Y014487D01*
X027314Y018737D01*
X026964Y019087D01*
X027334Y019654D02*
X027334Y019867D01*
X027264Y019937D01*
X027264Y022187D01*
X027064Y022387D01*
X027064Y022887D02*
X027064Y023937D01*
X027019Y023982D01*
X027019Y024221D01*
X027334Y024221D02*
X027334Y024557D01*
X027414Y024637D01*
X027414Y025137D01*
X028264Y025987D01*
X028314Y026437D02*
X026764Y024887D01*
X026764Y024637D01*
X026704Y024577D01*
X026704Y024221D01*
X026414Y024237D02*
X026414Y024587D01*
X026464Y024637D01*
X026464Y025687D01*
X026414Y024237D02*
X026397Y024221D01*
X026389Y024221D01*
X027564Y023837D02*
X027564Y023637D01*
X027564Y023837D02*
X027649Y023922D01*
X027649Y024221D01*
X028614Y023487D02*
X028614Y021687D01*
X029614Y020687D01*
X029614Y020437D01*
X029964Y020437D01*
X030038Y020363D01*
X030247Y020363D01*
X030247Y020677D02*
X030473Y020677D01*
X030514Y020637D01*
X030864Y020637D01*
X030864Y020987D02*
X030564Y020987D01*
X030559Y020992D01*
X030247Y020992D01*
X030514Y020987D02*
X030564Y020987D01*
X030247Y021307D02*
X030034Y021307D01*
X030014Y021287D01*
X029714Y021287D01*
X029714Y020987D01*
X030247Y021622D02*
X030429Y021622D01*
X030514Y021537D01*
X031164Y021537D01*
X031164Y012487D01*
X031564Y012087D01*
X031164Y012187D02*
X031164Y007187D01*
X031464Y006887D01*
X031464Y005837D01*
X031314Y005687D01*
X030964Y005337D01*
X030964Y005386D01*
X030964Y005337D01*
X030964Y005087D01*
X030964Y003987D01*
X030964Y003437D01*
X030764Y002587D02*
X032514Y002587D01*
X032514Y003887D01*
X033964Y005337D01*
X035714Y005337D01*
X035864Y005337D01*
X035964Y005437D01*
X036964Y006437D02*
X036964Y006587D01*
X037064Y006687D01*
X037714Y007337D01*
X037714Y024387D01*
X036714Y025387D01*
X035464Y023937D02*
X035464Y023687D01*
X035464Y021837D01*
X035864Y021437D01*
X035864Y020187D01*
X035964Y020087D01*
X035964Y019937D01*
X034814Y019687D02*
X034814Y016337D01*
X036514Y014637D01*
X036514Y012037D01*
X036864Y011687D01*
X036864Y011537D01*
X036964Y011437D01*
X036714Y010987D02*
X036264Y011437D01*
X035964Y011437D01*
X035914Y010887D02*
X036514Y010887D01*
X036514Y010037D01*
X036864Y009687D01*
X036864Y009587D01*
X036964Y009487D01*
X036964Y009437D01*
X036864Y008887D02*
X035914Y008887D01*
X035314Y009487D01*
X035314Y010087D01*
X033964Y011437D01*
X034964Y010837D02*
X035864Y009937D01*
X035864Y009687D01*
X035864Y009537D01*
X035964Y009437D01*
X036864Y008887D02*
X036864Y008687D01*
X036864Y008487D01*
X036914Y008437D01*
X036964Y008437D01*
X036864Y007887D02*
X035914Y007887D01*
X033564Y010237D01*
X033564Y012637D01*
X033014Y013187D01*
X033764Y013037D02*
X033764Y018837D01*
X032814Y019787D01*
X032464Y019837D02*
X032864Y020237D01*
X032864Y029737D01*
X033214Y030087D01*
X033514Y030387D01*
X033515Y030389D01*
X033515Y030437D01*
X033514Y030437D01*
X033514Y030487D01*
X033214Y030787D01*
X032864Y031137D01*
X029064Y031137D01*
X029064Y030687D01*
X029064Y030537D01*
X028964Y030437D01*
X028564Y029887D02*
X030514Y029887D01*
X029514Y029487D02*
X029514Y028387D01*
X029514Y029487D02*
X029464Y029537D01*
X028564Y029887D02*
X028214Y029537D01*
X028114Y029437D01*
X027964Y029437D01*
X027964Y030437D02*
X027864Y030537D01*
X027714Y030537D01*
X027364Y030887D01*
X032264Y027787D02*
X032264Y027587D01*
X032264Y019587D01*
X032164Y019487D01*
X032464Y019837D02*
X032464Y017587D01*
X031864Y017587D02*
X031864Y021437D01*
X031614Y021687D01*
X031614Y022737D01*
X031614Y023887D02*
X031514Y023987D01*
X033164Y022437D02*
X034114Y021487D01*
X034114Y017587D01*
X035014Y018037D02*
X035864Y017187D01*
X035964Y017087D01*
X035964Y016937D01*
X036964Y017937D02*
X036964Y018087D01*
X036864Y018187D01*
X036514Y018537D01*
X036514Y022137D01*
X035764Y022887D01*
X035014Y023837D02*
X035014Y018037D01*
X034814Y019687D02*
X034414Y020087D01*
X037414Y017487D02*
X037414Y011287D01*
X037114Y010987D01*
X036714Y010987D01*
X035914Y010887D02*
X035014Y011787D01*
X035014Y013787D01*
X034064Y014737D01*
X034164Y015087D02*
X035714Y013537D01*
X035864Y013537D01*
X035964Y013437D01*
X031164Y012187D02*
X030514Y012187D01*
X030314Y012187D01*
X030264Y012237D01*
X030249Y012252D01*
X030247Y012252D01*
X030164Y012537D02*
X030064Y012637D01*
X029964Y012637D01*
X029414Y012637D01*
X029414Y013187D01*
X028914Y013687D01*
X028614Y013937D02*
X028614Y013187D01*
X029114Y012687D01*
X029614Y012937D02*
X029614Y013387D01*
X029514Y013487D01*
X029814Y013237D02*
X029814Y013787D01*
X030247Y013512D02*
X030247Y013504D01*
X030264Y013487D01*
X030514Y013487D01*
X030864Y013487D01*
X030864Y013987D02*
X030864Y014787D01*
X029264Y016387D01*
X029264Y019387D01*
X029223Y019427D01*
X029223Y019654D01*
X029514Y019687D02*
X029514Y019887D01*
X029464Y019937D01*
X029464Y020187D01*
X029514Y019687D02*
X029564Y019637D01*
X029547Y019654D01*
X029538Y019654D01*
X028909Y019654D02*
X028909Y019392D01*
X028914Y019387D01*
X028914Y018487D01*
X028914Y018387D01*
X028914Y016537D01*
X028314Y015937D01*
X029214Y015037D02*
X029214Y014487D01*
X029214Y014237D01*
X029223Y014227D01*
X029223Y014221D01*
X029514Y014237D02*
X029514Y014487D01*
X029514Y015287D01*
X028914Y014787D02*
X028914Y014487D01*
X028914Y014237D01*
X028909Y014232D01*
X028909Y014221D01*
X028594Y014221D02*
X028594Y013957D01*
X028614Y013937D01*
X028364Y013737D02*
X028364Y012887D01*
X028614Y012637D02*
X028414Y012437D01*
X029614Y012937D02*
X029964Y012937D01*
X030114Y012937D01*
X030164Y012887D01*
X030169Y012882D01*
X030247Y012882D01*
X030214Y013187D02*
X030164Y013237D01*
X029964Y013237D01*
X029814Y013237D01*
X030214Y013187D02*
X030223Y013197D01*
X030247Y013197D01*
X030247Y012567D02*
X030194Y012567D01*
X030164Y012537D01*
X030164Y011337D02*
X030214Y011287D01*
X030234Y011307D01*
X030247Y011307D01*
X030164Y011337D02*
X029964Y011337D01*
X029414Y011337D01*
X027649Y009654D02*
X027649Y009352D01*
X027714Y009287D01*
X030264Y006737D01*
X027264Y006087D02*
X030764Y002587D01*
X030664Y002387D02*
X032964Y002387D01*
X032964Y003037D01*
X032964Y003437D01*
X030664Y002387D02*
X025814Y007237D01*
X025814Y010337D01*
X025788Y010363D01*
X025680Y010363D01*
X025680Y010677D02*
X025704Y010677D01*
X025714Y010687D01*
X025764Y010737D01*
X025964Y010737D01*
X026714Y010737D01*
X026714Y013087D01*
X026814Y013187D01*
X027064Y013337D02*
X027114Y013287D01*
X027114Y011337D01*
X026914Y011137D01*
X026914Y010337D01*
X027019Y009654D02*
X027019Y009292D01*
X026964Y009237D01*
X026964Y007387D01*
X026664Y007687D02*
X026664Y009237D01*
X026704Y009277D01*
X026704Y009654D01*
X026389Y009654D02*
X026389Y009213D01*
X026364Y009187D01*
X026364Y007487D01*
X027264Y006087D02*
X027264Y009237D01*
X027334Y009307D01*
X027334Y009654D01*
X025680Y011304D02*
X025680Y011307D01*
X025680Y011304D02*
X025664Y011287D01*
X025614Y011237D01*
X025414Y011237D01*
X024764Y011237D01*
X023264Y013237D02*
X023264Y004837D01*
X024364Y005437D02*
X024364Y013387D01*
X024414Y013437D01*
X023514Y013487D02*
X023264Y013237D01*
X022964Y014287D02*
X023514Y014837D01*
X027019Y014221D02*
X027019Y014192D01*
X027014Y014187D01*
X027014Y013987D01*
X027064Y013937D01*
X027064Y013337D01*
X028279Y013822D02*
X028279Y014221D01*
X028279Y013822D02*
X028364Y013737D01*
X029514Y014237D02*
X029530Y014221D01*
X029538Y014221D01*
X027614Y014787D02*
X027614Y019387D01*
X027649Y019422D01*
X027649Y019654D01*
X028594Y019654D02*
X028594Y019407D01*
X028614Y019387D01*
X028614Y017087D01*
X026214Y022837D02*
X025964Y022837D01*
X025764Y022837D01*
X025714Y022887D01*
X025709Y022882D01*
X025680Y022882D01*
X028909Y024221D02*
X028909Y024282D01*
X028914Y024287D01*
X028864Y024337D01*
X033164Y025687D02*
X035014Y023837D01*
X035214Y027937D02*
X033814Y027937D01*
X033515Y027937D01*
X032414Y027937D02*
X032264Y027787D01*
X032412Y027937D02*
X032414Y027937D01*
X035214Y027937D02*
X035464Y027937D01*
X036864Y007887D02*
X036864Y007687D01*
X036864Y007537D01*
X036964Y007437D01*
D34*
X013836Y027010D02*
X013836Y027459D01*
X013914Y027537D01*
X014092Y029864D02*
X014092Y030359D01*
X014014Y030437D01*
X013064Y030437D01*
X013014Y030387D01*
X013014Y029887D01*
X012991Y029864D01*
X012812Y029864D01*
X013014Y029887D02*
X013036Y029864D01*
X013068Y029864D01*
X013036Y029864D01*
X013014Y029887D01*
X014859Y029864D02*
X014859Y030383D01*
X014864Y030387D01*
X005764Y028537D02*
X005679Y028622D01*
X005649Y028622D01*
X004849Y028622D01*
M02*
