G75*
G70*
%OFA0B0*%
%FSLAX24Y24*%
%IPPOS*%
%LPD*%
%AMOC8*
5,1,8,0,0,1.08239X$1,22.5*
%
%ADD10C,0.1182*%
%ADD11R,0.0277X0.0671*%
%ADD12R,0.0671X0.0277*%
%ADD13O,0.0680X0.1280*%
%ADD14C,0.0600*%
%ADD15R,0.0198X0.0671*%
%ADD16R,0.0946X0.1064*%
%ADD17C,0.0434*%
%ADD18R,0.0867X0.0277*%
%ADD19R,0.0671X0.0867*%
%ADD20R,0.0867X0.0671*%
%ADD21R,0.0552X0.0474*%
%ADD22O,0.0640X0.1200*%
%ADD23O,0.1200X0.0640*%
%ADD24R,0.0710X0.0789*%
%ADD25OC8,0.0640*%
%ADD26OC8,0.0600*%
%ADD27R,0.0631X0.0474*%
%ADD28R,0.0789X0.0710*%
%ADD29R,0.0946X0.0316*%
%ADD30O,0.1070X0.2060*%
%ADD31C,0.0340*%
D10*
X002264Y002687D03*
X037664Y002687D03*
X037614Y030237D03*
D11*
X029538Y024221D03*
X029223Y024221D03*
X028909Y024221D03*
X028594Y024221D03*
X028279Y024221D03*
X027964Y024221D03*
X027649Y024221D03*
X027334Y024221D03*
X027019Y024221D03*
X026704Y024221D03*
X026389Y024221D03*
X026389Y019654D03*
X026704Y019654D03*
X027019Y019654D03*
X027334Y019654D03*
X027649Y019654D03*
X027964Y019654D03*
X028279Y019654D03*
X028594Y019654D03*
X028909Y019654D03*
X029223Y019654D03*
X029538Y019654D03*
X029538Y014221D03*
X029223Y014221D03*
X028909Y014221D03*
X028594Y014221D03*
X028279Y014221D03*
X027964Y014221D03*
X027649Y014221D03*
X027334Y014221D03*
X027019Y014221D03*
X026704Y014221D03*
X026389Y014221D03*
X026389Y009654D03*
X026704Y009654D03*
X027019Y009654D03*
X027334Y009654D03*
X027649Y009654D03*
X027964Y009654D03*
X028279Y009654D03*
X028594Y009654D03*
X028909Y009654D03*
X029223Y009654D03*
X029538Y009654D03*
X018538Y009154D03*
X018223Y009154D03*
X017909Y009154D03*
X017594Y009154D03*
X017279Y009154D03*
X016964Y009154D03*
X016649Y009154D03*
X016334Y009154D03*
X016019Y009154D03*
X015704Y009154D03*
X015389Y009154D03*
X015389Y013721D03*
X015704Y013721D03*
X016019Y013721D03*
X016334Y013721D03*
X016649Y013721D03*
X016964Y013721D03*
X017279Y013721D03*
X017594Y013721D03*
X017909Y013721D03*
X018223Y013721D03*
X018538Y013721D03*
X013038Y018154D03*
X012723Y018154D03*
X012409Y018154D03*
X012094Y018154D03*
X011779Y018154D03*
X011464Y018154D03*
X011149Y018154D03*
X010834Y018154D03*
X010519Y018154D03*
X010204Y018154D03*
X009889Y018154D03*
X009889Y022721D03*
X010204Y022721D03*
X010519Y022721D03*
X010834Y022721D03*
X011149Y022721D03*
X011464Y022721D03*
X011779Y022721D03*
X012094Y022721D03*
X012409Y022721D03*
X012723Y022721D03*
X013038Y022721D03*
D12*
X013747Y022012D03*
X013747Y021697D03*
X013747Y021382D03*
X013747Y021067D03*
X013747Y020752D03*
X013747Y020437D03*
X013747Y020122D03*
X013747Y019807D03*
X013747Y019492D03*
X013747Y019177D03*
X013747Y018863D03*
X009180Y018863D03*
X009180Y019177D03*
X009180Y019492D03*
X009180Y019807D03*
X009180Y020122D03*
X009180Y020437D03*
X009180Y020752D03*
X009180Y021067D03*
X009180Y021382D03*
X009180Y021697D03*
X009180Y022012D03*
X014680Y013012D03*
X014680Y012697D03*
X014680Y012382D03*
X014680Y012067D03*
X014680Y011752D03*
X014680Y011437D03*
X014680Y011122D03*
X014680Y010807D03*
X014680Y010492D03*
X014680Y010177D03*
X014680Y009863D03*
X019247Y009863D03*
X019247Y010177D03*
X019247Y010492D03*
X019247Y010807D03*
X019247Y011122D03*
X019247Y011437D03*
X019247Y011752D03*
X019247Y012067D03*
X019247Y012382D03*
X019247Y012697D03*
X019247Y013012D03*
X025680Y012882D03*
X025680Y012567D03*
X025680Y012252D03*
X025680Y011937D03*
X025680Y011622D03*
X025680Y011307D03*
X025680Y010992D03*
X025680Y010677D03*
X025680Y010363D03*
X025680Y013197D03*
X025680Y013512D03*
X030247Y013512D03*
X030247Y013197D03*
X030247Y012882D03*
X030247Y012567D03*
X030247Y012252D03*
X030247Y011937D03*
X030247Y011622D03*
X030247Y011307D03*
X030247Y010992D03*
X030247Y010677D03*
X030247Y010363D03*
X030247Y020363D03*
X030247Y020677D03*
X030247Y020992D03*
X030247Y021307D03*
X030247Y021622D03*
X030247Y021937D03*
X030247Y022252D03*
X030247Y022567D03*
X030247Y022882D03*
X030247Y023197D03*
X030247Y023512D03*
X025680Y023512D03*
X025680Y023197D03*
X025680Y022882D03*
X025680Y022567D03*
X025680Y022252D03*
X025680Y021937D03*
X025680Y021622D03*
X025680Y021307D03*
X025680Y020992D03*
X025680Y020677D03*
X025680Y020363D03*
D13*
X023464Y030937D03*
X022464Y030937D03*
X021464Y030937D03*
X020464Y030937D03*
X019464Y030937D03*
X018464Y030937D03*
D14*
X022464Y005437D03*
X025464Y005437D03*
X025464Y002437D03*
X022464Y002437D03*
D15*
X015627Y027010D03*
X015371Y027010D03*
X015115Y027010D03*
X014859Y027010D03*
X014603Y027010D03*
X014347Y027010D03*
X014092Y027010D03*
X013836Y027010D03*
X013580Y027010D03*
X013324Y027010D03*
X013068Y027010D03*
X012812Y027010D03*
X012556Y027010D03*
X012300Y027010D03*
X012300Y029864D03*
X012556Y029864D03*
X012812Y029864D03*
X013068Y029864D03*
X013324Y029864D03*
X013580Y029864D03*
X013836Y029864D03*
X014092Y029864D03*
X014347Y029864D03*
X014603Y029864D03*
X014859Y029864D03*
X015115Y029864D03*
X015371Y029864D03*
X015627Y029864D03*
D16*
X004751Y030591D03*
X002664Y030591D03*
X002664Y027284D03*
X004751Y027284D03*
D17*
X003964Y028248D03*
X003964Y029626D03*
D18*
X004849Y029567D03*
X004849Y029252D03*
X004849Y028937D03*
X004849Y028622D03*
X004849Y028307D03*
D19*
X009373Y030937D03*
X010554Y030937D03*
D20*
X008464Y029528D03*
X008464Y028347D03*
X006964Y028528D03*
X006964Y027347D03*
X010464Y027847D03*
X010464Y029028D03*
D21*
X007897Y030937D03*
X007031Y030937D03*
D22*
X018464Y028937D03*
X019464Y028937D03*
X021464Y028937D03*
X022464Y028937D03*
X023464Y028937D03*
X030964Y003437D03*
X031964Y003437D03*
X032964Y003437D03*
D23*
X021464Y006437D03*
X021464Y007437D03*
X019464Y007437D03*
X019464Y006437D03*
X018964Y003937D03*
X018964Y002937D03*
X020464Y002937D03*
X020464Y003937D03*
X003464Y011437D03*
X003464Y012437D03*
X003464Y013437D03*
X006464Y022937D03*
X006464Y023937D03*
X006464Y024937D03*
X022964Y024937D03*
X022964Y023937D03*
X022964Y025937D03*
D24*
X019515Y023937D03*
X018412Y023937D03*
X021912Y021437D03*
X023015Y021437D03*
X017015Y017437D03*
X015912Y017437D03*
X015515Y015437D03*
X014412Y015437D03*
X017912Y015437D03*
X019015Y015437D03*
X032412Y027937D03*
X033515Y027937D03*
X033515Y030437D03*
X032412Y030437D03*
D25*
X030964Y030437D03*
X030964Y029437D03*
X029964Y029437D03*
X029964Y030437D03*
X028964Y030437D03*
X028964Y029437D03*
X027964Y029437D03*
X027964Y030437D03*
X026964Y030437D03*
X026964Y029437D03*
X025964Y029437D03*
X025964Y030437D03*
X024964Y030437D03*
X024964Y029437D03*
X035964Y019937D03*
X036964Y019937D03*
X036964Y018937D03*
X035964Y018937D03*
X035964Y017937D03*
X036964Y017937D03*
X036964Y016937D03*
X035964Y016937D03*
X035964Y015937D03*
X036964Y015937D03*
X036964Y013437D03*
X035964Y013437D03*
X035964Y012437D03*
X036964Y012437D03*
X036964Y011437D03*
X035964Y011437D03*
X035964Y010437D03*
X036964Y010437D03*
X036964Y009437D03*
X035964Y009437D03*
X035964Y008437D03*
X036964Y008437D03*
X036964Y007437D03*
X035964Y007437D03*
X035964Y006437D03*
X036964Y006437D03*
X036964Y005437D03*
X035964Y005437D03*
X015964Y003937D03*
X015964Y002937D03*
X014964Y002937D03*
X013964Y002937D03*
X013964Y003937D03*
X014964Y003937D03*
X012964Y003937D03*
X011964Y003937D03*
X011964Y002937D03*
X012964Y002937D03*
X010964Y002937D03*
X009964Y002937D03*
X009964Y003937D03*
X010964Y003937D03*
X003464Y016437D03*
X002464Y016437D03*
X002464Y017437D03*
X003464Y017437D03*
X003464Y018437D03*
X002464Y018437D03*
X002464Y019437D03*
X003464Y019437D03*
X003464Y020437D03*
X002464Y020437D03*
X002464Y021437D03*
X003464Y021437D03*
X003464Y022437D03*
X002464Y022437D03*
X002464Y023437D03*
X003464Y023437D03*
X003464Y024437D03*
X002464Y024437D03*
D26*
X035464Y023937D03*
X036464Y022947D03*
X036464Y024927D03*
X036464Y026947D03*
X035464Y027937D03*
X036464Y028927D03*
D27*
X022397Y019811D03*
X021531Y019437D03*
X022397Y019063D03*
D28*
X013464Y007989D03*
X013464Y006886D03*
X030964Y006489D03*
X030964Y005386D03*
D29*
X010487Y009187D03*
X010487Y009687D03*
X010487Y010187D03*
X010487Y010687D03*
X008440Y010687D03*
X008440Y010187D03*
X008440Y009687D03*
X008440Y009187D03*
D30*
X007044Y003487D03*
X005484Y003487D03*
D31*
X011614Y007187D03*
X013314Y008887D03*
X013864Y008537D03*
X014164Y009487D03*
X013564Y009537D03*
X014064Y010637D03*
X014064Y011437D03*
X013264Y011387D03*
X012864Y011737D03*
X013864Y012287D03*
X013564Y012937D03*
X012864Y012737D03*
X012714Y013937D03*
X012414Y014237D03*
X013014Y014787D03*
X012414Y015087D03*
X012114Y015437D03*
X011814Y015737D03*
X011464Y014537D03*
X010814Y013887D03*
X013314Y016037D03*
X013914Y016037D03*
X013314Y016887D03*
X012414Y017187D03*
X011764Y017187D03*
X010764Y017187D03*
X009564Y018487D03*
X009914Y019087D03*
X009714Y019387D03*
X010514Y019087D03*
X011064Y018787D03*
X011364Y019987D03*
X012664Y019987D03*
X013214Y020787D03*
X013214Y022137D03*
X014314Y022737D03*
X014464Y023087D03*
X014314Y023587D03*
X013714Y023887D03*
X014614Y024787D03*
X014414Y025387D03*
X014064Y025437D03*
X012164Y025387D03*
X011814Y023437D03*
X011364Y023237D03*
X010564Y023587D03*
X010014Y022087D03*
X010814Y021637D03*
X010314Y021387D03*
X009714Y021337D03*
X010014Y020737D03*
X009814Y020437D03*
X008314Y021687D03*
X008664Y023137D03*
X005464Y020737D03*
X004564Y021187D03*
X007314Y019087D03*
X008614Y017687D03*
X013714Y018487D03*
X014364Y018887D03*
X015064Y019187D03*
X015364Y018887D03*
X015464Y016887D03*
X016064Y015087D03*
X015664Y014487D03*
X015264Y014587D03*
X015314Y014237D03*
X016314Y014237D03*
X017264Y014237D03*
X017814Y014837D03*
X018864Y014487D03*
X018414Y013187D03*
X017864Y013137D03*
X018364Y012587D03*
X017614Y011987D03*
X016964Y011887D03*
X016364Y011787D03*
X016064Y012837D03*
X015214Y012387D03*
X014714Y013337D03*
X015414Y011087D03*
X015414Y010737D03*
X016614Y009837D03*
X017514Y009737D03*
X017964Y009737D03*
X018064Y010537D03*
X017664Y010537D03*
X016964Y010837D03*
X018664Y011287D03*
X019764Y011637D03*
X020464Y010887D03*
X021064Y011037D03*
X020064Y009937D03*
X022114Y009737D03*
X024064Y011037D03*
X024664Y011637D03*
X024014Y012587D03*
X023714Y013187D03*
X023514Y013487D03*
X024414Y013437D03*
X024614Y013737D03*
X024314Y014237D03*
X023514Y014837D03*
X024614Y015137D03*
X023514Y015937D03*
X021364Y016537D03*
X020064Y017187D03*
X019364Y017687D03*
X020214Y018237D03*
X017664Y016587D03*
X020414Y015387D03*
X020764Y014587D03*
X021664Y013437D03*
X021064Y012837D03*
X019764Y012587D03*
X022564Y011987D03*
X025164Y012837D03*
X026214Y012587D03*
X026214Y011937D03*
X027314Y011137D03*
X028014Y010837D03*
X028314Y011337D03*
X027714Y011937D03*
X028614Y012637D03*
X028364Y012887D03*
X028714Y012287D03*
X029114Y012687D03*
X029514Y013487D03*
X029814Y013787D03*
X030864Y013987D03*
X030864Y013487D03*
X031564Y012087D03*
X030764Y011337D03*
X031464Y010687D03*
X029514Y010987D03*
X029714Y011687D03*
X029514Y010187D03*
X028914Y010187D03*
X026914Y010337D03*
X025064Y010337D03*
X024764Y009437D03*
X026364Y007487D03*
X026664Y007687D03*
X026964Y007387D03*
X024364Y005437D03*
X024064Y005637D03*
X022964Y005337D03*
X021414Y006437D03*
X020414Y006487D03*
X021514Y007437D03*
X019714Y007937D03*
X018464Y007387D03*
X018064Y008537D03*
X016864Y008537D03*
X014564Y006587D03*
X012214Y005337D03*
X009614Y009187D03*
X009214Y009087D03*
X009464Y010137D03*
X009614Y010837D03*
X008864Y011037D03*
X007664Y010237D03*
X011014Y011037D03*
X011614Y009537D03*
X004164Y009437D03*
X003764Y010237D03*
X018514Y022037D03*
X019314Y021237D03*
X019564Y020487D03*
X020814Y020737D03*
X021414Y020487D03*
X020214Y021637D03*
X020214Y022087D03*
X020814Y022987D03*
X022464Y022037D03*
X024064Y022387D03*
X024664Y022037D03*
X024714Y021337D03*
X025114Y020837D03*
X026214Y020837D03*
X026214Y021637D03*
X027064Y022387D03*
X027064Y022887D03*
X027564Y023637D03*
X028614Y023487D03*
X029714Y023237D03*
X029714Y022887D03*
X030764Y022137D03*
X031614Y022737D03*
X031964Y021887D03*
X033164Y022437D03*
X031614Y023887D03*
X031014Y024937D03*
X029864Y024487D03*
X028264Y025987D03*
X028314Y026437D03*
X028864Y027837D03*
X028764Y028787D03*
X029464Y029537D03*
X031514Y029487D03*
X027564Y028487D03*
X027264Y028987D03*
X026064Y028187D03*
X023864Y030287D03*
X020014Y030137D03*
X017164Y030587D03*
X016264Y029787D03*
X015564Y029337D03*
X015064Y029337D03*
X014864Y030387D03*
X015314Y030387D03*
X013014Y030387D03*
X010814Y029537D03*
X010014Y030687D03*
X007514Y028987D03*
X012764Y027837D03*
X013514Y027537D03*
X017114Y025987D03*
X018714Y027087D03*
X020064Y026187D03*
X019764Y025487D03*
X021814Y026787D03*
X024464Y025687D03*
X024764Y024787D03*
X025314Y024187D03*
X025714Y024187D03*
X026214Y022837D03*
X027864Y021637D03*
X028914Y021787D03*
X029714Y020987D03*
X029464Y020187D03*
X030864Y020637D03*
X030864Y020987D03*
X032164Y019487D03*
X032814Y019787D03*
X034414Y020087D03*
X035314Y021587D03*
X035764Y022887D03*
X036714Y025387D03*
X033164Y025687D03*
X027964Y024787D03*
X026464Y025687D03*
X023864Y023187D03*
X023514Y020737D03*
X023514Y019637D03*
X023514Y018887D03*
X024914Y019087D03*
X025814Y019287D03*
X026114Y018237D03*
X025414Y017987D03*
X027014Y017387D03*
X028314Y018187D03*
X028914Y018487D03*
X028614Y017087D03*
X028314Y015937D03*
X029214Y015037D03*
X029514Y015287D03*
X028914Y014787D03*
X027614Y014787D03*
X026114Y015237D03*
X026814Y013187D03*
X028914Y013687D03*
X033014Y013187D03*
X033764Y013037D03*
X033964Y011437D03*
X034964Y010837D03*
X034064Y014737D03*
X034164Y015087D03*
X034114Y017587D03*
X032464Y017587D03*
X031864Y017587D03*
X031464Y018487D03*
X026964Y019087D03*
X026814Y020187D03*
X019014Y023387D03*
X018164Y023037D03*
X003214Y023887D03*
X030264Y006737D03*
X037414Y017487D03*
M02*
